<svg width="238" height="189" viewBox="0 0 238 189" fill="none" xmlns="http://www.w3.org/2000/svg">
<path d="M87.0453 21.0859L131.924 21.0859L107.833 55.4903L53.3437 133.31L30.1138 166.485L14.913 124.102L87.0453 21.0859Z" fill="black"/>
<path d="M14.913 124.102L87.0453 21.0859L131.924 21.0859L107.833 55.4903L53.3437 133.31M14.913 124.102L30.1138 166.485L53.3437 133.31M14.913 124.102L53.3437 133.31" stroke="black"/>
<path d="M150.09 167.261L105.212 167.261L129.302 132.857L183.792 55.0372L207.022 21.8616L222.223 64.2455L150.09 167.261Z" fill="black"/>
<path d="M222.223 64.2455L150.09 167.261L105.212 167.261L129.302 132.857L183.792 55.0372M222.223 64.2455L207.022 21.8616L183.792 55.0372M222.223 64.2455L183.792 55.0372" stroke="black"/>
</svg>
