<svg width="327" height="246" viewBox="0 0 327 246" fill="none" xmlns="http://www.w3.org/2000/svg">
<path d="M188.447 153.654L126.214 242.532C124.946 244.341 122.452 244.781 120.643 243.514L89.9243 222.005C88.1147 220.738 87.6749 218.244 88.942 216.434L151.401 127.233L88.9406 38.5495C87.6726 36.749 88.0983 34.2623 89.8931 32.9862L120.634 11.1291C122.445 9.84215 124.956 10.2762 126.23 12.0959L188.433 100.996C189.705 102.814 189.254 105.32 187.428 106.581L162.335 123.904C160.041 125.487 160.03 128.873 162.313 130.472L187.464 148.083C189.274 149.35 189.714 151.844 188.447 153.654Z" fill="#1B1A1A"/>
<path d="M188.447 153.654L126.214 242.532C124.946 244.341 122.452 244.781 120.643 243.514L89.9243 222.005C88.1147 220.738 87.6749 218.244 88.942 216.434L151.401 127.233L88.9406 38.5495C87.6726 36.749 88.0983 34.2623 89.8931 32.9862L120.634 11.1291C122.445 9.84215 124.956 10.2762 126.23 12.0959L188.433 100.996C189.705 102.814 189.254 105.32 187.428 106.581L162.335 123.904C160.041 125.487 160.03 128.873 162.313 130.472L187.464 148.083C189.274 149.35 189.714 151.844 188.447 153.654Z" fill="#1B1A1A"/>
<path d="M188.447 153.654L126.214 242.532C124.946 244.341 122.452 244.781 120.643 243.514L89.9243 222.005C88.1147 220.738 87.6749 218.244 88.942 216.434L151.401 127.233L88.9406 38.5495C87.6726 36.749 88.0983 34.2623 89.8931 32.9862L120.634 11.1291C122.445 9.84215 124.956 10.2762 126.23 12.0959L188.433 100.996C189.705 102.814 189.254 105.32 187.428 106.581L162.335 123.904C160.041 125.487 160.03 128.873 162.313 130.472L187.464 148.083C189.274 149.35 189.714 151.844 188.447 153.654Z" fill="#1B1A1A"/>
<path d="M151.444 127.172L88.942 216.434C87.6749 218.244 88.1147 220.738 89.9243 222.005L120.643 243.514C122.452 244.781 124.946 244.341 126.214 242.532L188.447 153.654C189.714 151.844 189.274 149.35 187.464 148.083L162.313 130.472C160.03 128.873 160.041 125.487 162.335 123.904L187.428 106.581C189.254 105.32 189.705 102.814 188.433 100.996L126.23 12.0959C124.956 10.2762 122.445 9.84216 120.634 11.1291L89.8931 32.9862C88.0983 34.2623 87.6726 36.749 88.9406 38.5495L151.444 127.294" stroke="black"/>
<path d="M279.447 153.654L217.214 242.532C215.946 244.341 213.452 244.781 211.643 243.514L180.924 222.005C179.115 220.738 178.675 218.244 179.942 216.434L242.401 127.233L179.941 38.5495C178.673 36.749 179.098 34.2623 180.893 32.9862L211.634 11.1291C213.445 9.84215 215.956 10.2762 217.23 12.0959L279.433 100.996C280.705 102.814 280.254 105.32 278.428 106.581L253.335 123.904C251.041 125.487 251.03 128.873 253.313 130.472L278.464 148.083C280.274 149.35 280.714 151.844 279.447 153.654Z" fill="#1B1A1A"/>
<path d="M279.447 153.654L217.214 242.532C215.946 244.341 213.452 244.781 211.643 243.514L180.924 222.005C179.115 220.738 178.675 218.244 179.942 216.434L242.401 127.233L179.941 38.5495C178.673 36.749 179.098 34.2623 180.893 32.9862L211.634 11.1291C213.445 9.84215 215.956 10.2762 217.23 12.0959L279.433 100.996C280.705 102.814 280.254 105.32 278.428 106.581L253.335 123.904C251.041 125.487 251.03 128.873 253.313 130.472L278.464 148.083C280.274 149.35 280.714 151.844 279.447 153.654Z" fill="#1B1A1A"/>
<path d="M279.447 153.654L217.214 242.532C215.946 244.341 213.452 244.781 211.643 243.514L180.924 222.005C179.115 220.738 178.675 218.244 179.942 216.434L242.401 127.233L179.941 38.5495C178.673 36.749 179.098 34.2623 180.893 32.9862L211.634 11.1291C213.445 9.84215 215.956 10.2762 217.23 12.0959L279.433 100.996C280.705 102.814 280.254 105.32 278.428 106.581L253.335 123.904C251.041 125.487 251.03 128.873 253.313 130.472L278.464 148.083C280.274 149.35 280.714 151.844 279.447 153.654Z" fill="#1B1A1A"/>
<path d="M242.444 127.172L179.942 216.434C178.675 218.244 179.115 220.738 180.924 222.005L211.643 243.514C213.452 244.781 215.946 244.341 217.214 242.532L279.447 153.654C280.714 151.844 280.274 149.35 278.464 148.083L253.313 130.472C251.03 128.873 251.041 125.487 253.335 123.904L278.428 106.581C280.254 105.32 280.705 102.814 279.433 100.996L217.23 12.0959C215.956 10.2762 213.445 9.84216 211.634 11.1291L180.893 32.9862C179.098 34.2623 178.673 36.749 179.941 38.5495L242.444 127.294" stroke="black"/>
</svg>
